<svg width="334" height="343" xmlns="http://www.w3.org/2000/svg" xmlns:xlink="http://www.w3.org/1999/xlink" xml:space="preserve" overflow="hidden"><g transform="translate(-340 -42)"><path d="M16.0206 181.582C15.195 160.502 18.3173 140.274 25.4612 120.711 29.9216 108.497 35.8594 97.0087 43.2748 86.2971 52.1503 73.4766 62.6527 62.1905 74.943 52.591 95.7603 36.3314 119.122 25.9045 145.261 21.6565 156.299 19.8626 167.384 19.0964 178.494 19.7928 202.266 21.2829 224.627 27.7721 245.278 39.7974 271.228 54.9085 291.527 75.5103 305.587 102.124 314.783 119.532 320.477 138.088 322.512 157.618 326.442 195.332 318.172 230.316 296.611 261.56 274.847 293.097 245.302 314.203 208.093 324.278 191.902 328.662 175.452 330.048 158.8 328.825 124.899 326.335 95.1962 313.585 69.5204 291.439 45.3862 270.623 29.3183 244.705 21.078 213.921 18.2624 203.403 16.5861 192.71 16.0206 181.582M194.517 72.862C204.617 76.0968 213.575 81.3153 221.252 88.6149 233.082 99.8631 240.537 113.789 245.401 129.179 248.788 139.894 250.583 150.952 251.547 162.127 251.741 164.368 252.592 164.91 254.607 164.81 257.123 164.686 259.65 164.788 262.172 164.788 274.871 164.784 287.57 164.734 300.268 164.813 302.597 164.828 303.446 164.045 303.09 161.763 302.675 159.108 302.41 156.429 302.004 153.771 298.697 132.141 290.524 112.468 277.609 94.8692 266.273 79.4212 252.4 66.6617 235.781 56.9317 218.21 46.6448 199.232 40.8953 179.029 39.4076 163.853 38.2902 148.815 39.7955 134.136 43.9581 108.15 51.327 86.4166 65.4387 68.8052 85.849 49.9547 107.695 39.3483 133.132 36.2557 161.766 36.046 163.708 36.6342 164.77 38.7428 164.769 54.2247 164.764 69.7066 164.767 85.1884 164.816 86.8432 164.822 87.5618 164.126 87.7068 162.558 87.9463 159.968 88.1782 157.375 88.5173 154.796 90.7553 137.78 95.0135 121.424 103.925 106.514 112.034 92.9464 122.71 82.2253 137.33 75.8006 155.862 67.657 174.835 67.2096 194.517 72.862M112.192 296.153C115.192 297.528 118.135 299.051 121.203 300.253 132.65 304.74 144.417 307.857 156.73 308.977 166.818 309.894 176.875 309.918 186.875 308.57 200.646 306.714 213.806 302.673 226.351 296.612 243.989 288.09 259.246 276.528 271.731 261.402 283.936 246.615 293.172 230.224 298.42 211.682 300.718 203.561 302.38 195.338 303.12 186.925 303.288 185.021 302.66 184.232 300.695 184.235 285.388 184.255 270.082 184.23 254.776 184.188 252.787 184.183 251.708 184.828 251.69 187.038 251.636 193.824 250.695 200.529 249.611 207.215 247.13 222.529 242.475 237.086 234.493 250.476 226.944 263.141 217.056 273.406 203.81 280.18 191.094 286.683 177.593 288.875 163.398 287.824 152.459 287.015 142.227 284.106 132.697 278.727 118.329 270.617 108.244 258.492 101.069 243.929 92.3436 226.222 88.2783 207.291 87.519 187.62 87.4477 185.775 87.5517 184.14 84.9107 184.149 69.6046 184.206 54.2983 184.184 38.992 184.191 38.7317 184.192 38.4717 184.232 38.2112 184.24 36.6587 184.288 36.0347 185.137 36.1857 186.619 36.3791 188.518 36.5403 190.423 36.8142 192.31 39.4126 210.215 44.9665 227.1 54.3445 242.64 68.3964 265.925 87.3389 283.951 112.192 296.153M208.289 193.235C206.334 200.283 202.219 205.887 196.546 210.344 194.547 211.914 194.565 213.237 195.992 215.11 201.193 221.934 203.138 229.673 202.13 238.153 200.898 248.518 195.385 255.901 185.987 260.185 178.89 263.421 171.351 264.351 163.578 263.177 150.538 261.208 141.211 254.717 136.99 241.771 136.305 239.668 136.882 238.74 138.891 238.173 143.487 236.875 148.072 235.533 152.615 234.068 154.33 233.515 154.87 234.088 155.34 235.661 157.21 241.914 161.531 245.416 167.976 246.022 172.776 246.474 177.326 245.439 180.268 241.271 183.1 237.259 182.679 232.859 180.384 228.694 178.931 226.058 176.527 224.234 174.135 222.496 165.908 216.521 157.593 210.666 149.413 204.629 142.449 199.489 135.946 193.863 132.218 185.752 131.653 184.523 130.664 184.243 129.452 184.247 124.758 184.265 120.063 184.294 115.368 184.258 113.159 184.24 112.259 185.2 112.321 187.433 112.428 191.259 112.957 195.035 113.335 198.831 114.742 212.956 118.239 226.517 124.543 239.245 132.619 255.551 144.455 267.251 163.503 269.382 172.248 270.361 180.837 269.603 189.012 265.93 200.428 260.799 207.982 251.873 213.713 241.095 218.729 231.659 222.01 221.617 224.056 211.174 225.607 203.254 226.613 195.252 226.962 187.173 227.052 185.076 226.407 184.141 224.19 184.208 220.281 184.325 216.366 184.271 212.454 184.257 210.624 184.25 209.533 184.865 209.367 186.918 209.208 188.896 208.717 190.847 208.289 193.235M143.264 142.951C134.08 131.393 133.677 110.224 150.627 100.281 158.168 95.8569 166.396 94.7002 175.018 95.8009 187.439 97.3865 196.425 103.378 200.868 115.472 201.531 117.277 201.055 117.986 199.402 118.506 195.26 119.81 191.132 121.16 187.019 122.55 183.361 123.785 183.392 123.811 181.854 120.099 179.742 114.999 175.584 112.749 170.38 112.485 165.528 112.24 161.274 113.742 158.577 118.19 155.835 122.712 156.964 128.863 161.37 133.144 164.941 136.615 169.091 139.337 173.173 142.148 182.829 148.798 192.899 154.929 200.711 163.909 201.44 164.747 202.344 164.782 203.312 164.782 210.181 164.78 217.051 164.743 223.92 164.807 226.227 164.829 227.076 163.858 226.764 161.619 225.904 155.436 225.068 149.257 223.732 143.145 220.635 128.981 215.757 115.653 206.496 104.208 192.172 86.5047 168.196 83.4755 150.132 91.0522 135.209 97.3119 127.071 109.769 121.263 124.1 116.298 136.352 113.871 149.199 112.505 162.289 112.304 164.207 113.031 164.796 114.793 164.781 119.314 164.743 123.837 164.715 128.357 164.8 130.038 164.832 130.839 164.125 131.396 162.607 133.706 156.301 137.739 151.238 143.109 147.298 145.019 145.897 145.221 144.774 143.264 142.951M159.133 186.075C166.505 191.285 173.883 196.487 181.243 201.715 182.115 202.335 182.9 202.591 183.83 201.87 187.779 198.806 190.441 194.922 190.806 189.863 191.226 184.041 188.123 179.833 183.97 176.204 175.578 168.871 165.989 163.155 157.199 156.361 156.372 155.722 155.606 155.649 154.612 156.305 146.71 161.525 145.212 172.168 151.481 179.252 153.673 181.728 156.143 183.918 159.133 186.075Z" transform="matrix(1 0 0 1.0019 340 42)"/></g></svg>